PathFileType	4	(X/Y/Z)	C:/Users/opensim2020/Desktop/walking_exp_matlab/subject06_walking18_straight_03_cyclic.trc	
DataRate	CameraRate	NumFrames	NumMarkers	Units	OrigDataRate	OrigDataStartFrame	OrigNumFrames	
100.00	100.00	5	47	mm	100.00	3379	148	
Frame#	Time	LFHD			RFHD			LBHD			RBHD			C7			T10			CLAV			STRN			RBAK			LSHO			LUPA			LELB			LFRM			LWRA			LWRB			LFIN			RSHO			RUPA			RELB			RFRM			RWRA			RWRB			RFIN			LASI			RASI			LPSI			RPSI			LTHI			LKNE			LTIB			LANK			LHEE			LTOE			RTHI			RKNE			RTIB			RANK			RHEE			RTOE			*39			*40			*41			*42			*43			*44			*45			*46			
		X1	Y1	Z1	X2	Y2	Z2	X3	Y3	Z3	X4	Y4	Z4	X5	Y5	Z5	X6	Y6	Z6	X7	Y7	Z7	X8	Y8	Z8	X9	Y9	Z9	X10	Y10	Z10	X11	Y11	Z11	X12	Y12	Z12	X13	Y13	Z13	X14	Y14	Z14	X15	Y15	Z15	X16	Y16	Z16	X17	Y17	Z17	X18	Y18	Z18	X19	Y19	Z19	X20	Y20	Z20	X21	Y21	Z21	X22	Y22	Z22	X23	Y23	Z23	X24	Y24	Z24	X25	Y25	Z25	X26	Y26	Z26	X27	Y27	Z27	X28	Y28	Z28	X29	Y29	Z29	X30	Y30	Z30	X31	Y31	Z31	X32	Y32	Z32	X33	Y33	Z33	X34	Y34	Z34	X35	Y35	Z35	X36	Y36	Z36	X37	Y37	Z37	X38	Y38	Z38	X39	Y39	Z39	X40	Y40	Z40	X41	Y41	Z41	X42	Y42	Z42	X43	Y43	Z43	X44	Y44	Z44	X45	Y45	Z45	X46	Y46	Z46	X47	Y47	Z47	

19	0.180	1419.87439	-340.35379	1681.84631	1550.33459	-337.45514	1664.19653	1418.83813	-471.22183	1621.86011	1547.82019	-466.97385	1609.57239	1466.75659	-465.28925	1465.58667	1464.87122	-506.82199	1138.34351	1466.20715	-355.20105	1388.55737	1455.45032	-318.00034	1213.76758	1543.51697	-538.69141	1295.21436	1304.22559	-407.47366	1423.76294	1229.16833	-409.26993	1222.15161	1215.65991	-412.48035	1109.85046	1189.37231	-376.39319	964.29669	1226.22791	-302.71201	856.23163	1190.70361	-363.46268	845.82642	1186.09460	-313.53903	770.21417	1626.98010	-398.46198	1415.87402	1711.14734	-433.09518	1215.08838	1718.72839	-422.48181	1093.03772	1732.17407	-404.61081	973.73285	1695.30688	-343.19919	836.35150	1737.10754	-395.06830	836.31152	1736.88403	-356.67517	761.26514	1352.77075	-330.69440	979.22266	1573.50793	-328.57913	982.03705	1380.83228	-488.93732	1003.10608	1549.05444	-481.81610	1008.30945	1290.93372	-371.53616	659.29828	1309.78137	-350.12631	497.70230	1311.18774	-497.15222	294.63470	1343.05981	-584.46143	144.05597	1393.58142	-622.74402	142.41634	1324.36365	-473.29895	57.27835	1622.75928	-378.66135	646.37958	1596.66064	-372.11920	521.41620	1592.50220	-426.72888	258.52573	1540.75757	-444.17093	73.77368	1496.23071	-484.48236	50.14622	1538.30432	-290.03284	38.11317	1482.50818	-441.15192	1712.76843																					 
20	0.190	1420.14136	-334.67175	1681.82617	1550.63135	-331.68701	1664.30811	1419.23645	-465.51953	1622.04602	1548.25659	-461.32352	1609.90552	1467.32007	-459.65863	1465.64868	1465.87939	-501.47913	1138.41199	1466.70789	-349.79984	1388.71204	1456.08032	-312.61761	1213.91760	1544.56372	-533.15808	1295.45715	1304.79761	-402.50546	1423.84729	1229.40259	-405.87787	1222.34033	1215.79077	-409.74121	1110.14807	1188.80676	-376.09589	964.25739	1224.83789	-304.08823	854.48932	1189.37939	-365.07394	845.48669	1184.41016	-316.93683	768.76105	1627.53503	-392.77081	1416.24182	1711.99023	-426.85965	1215.47607	1719.64111	-415.88437	1093.42139	1733.14148	-397.07053	974.23047	1696.00305	-334.96817	837.32947	1737.85779	-386.74152	836.90656	1737.55872	-347.88046	762.12292	1353.23523	-325.21808	979.57587	1574.31689	-323.36145	981.87854	1381.58093	-483.69827	1003.42853	1549.81921	-476.67285	1008.23651	1291.23523	-364.11865	660.01575	1310.60950	-341.15265	498.61087	1311.42419	-483.21918	291.65018	1343.04419	-566.22363	138.67154	1393.42871	-604.65924	135.72166	1324.33105	-452.17941	55.95378	1622.51196	-374.65805	646.00238	1596.80188	-369.35019	521.10541	1592.47205	-425.42612	258.47922	1540.60986	-444.04916	73.83733	1496.09192	-484.47897	50.25816	1538.22217	-289.75497	38.00487	1482.83679	-435.34839	1712.99500																					 
21	0.200	1420.36096	-329.00061	1681.75256	1550.86243	-325.94440	1664.37964	1419.61621	-459.97879	1622.17883	1548.61328	-455.67645	1610.15955	1468.55896	-455.63342	1466.10852	1466.85583	-496.05069	1138.46204	1467.14758	-344.38058	1388.77283	1456.61938	-307.22623	1213.99304	1545.50879	-527.59052	1295.62012	1305.29138	-397.51407	1423.82422	1229.56079	-402.48950	1222.42358	1215.87915	-407.05856	1110.31567	1188.26184	-375.53082	964.03156	1223.64722	-305.76138	852.78467	1188.21924	-366.73981	845.26050	1182.93237	-320.11389	767.44647	1628.03442	-387.05298	1416.49695	1712.79382	-420.65048	1215.77197	1720.66125	-409.35333	1093.74548	1733.98096	-389.70093	974.68707	1696.49890	-326.62375	838.32739	1738.55103	-378.36038	837.44330	1738.06580	-338.89783	762.96509	1354.14282	-319.88004	979.90222	1575.20435	-318.22119	981.69183	1382.24207	-478.49847	1003.67102	1550.55298	-471.41962	1008.11072	1291.40100	-356.59650	660.55518	1311.21106	-332.32440	499.43680	1311.61853	-469.04352	288.55759	1343.09045	-547.44476	133.10258	1393.34717	-586.02490	128.95909	1324.59937	-430.42609	54.82101	1622.43774	-370.36609	645.77631	1597.11194	-366.18048	520.65417	1592.41882	-424.03046	258.39862	1540.48291	-443.87292	73.89272	1495.98474	-484.43774	50.37622	1538.35388	-289.87698	37.99249	1483.05664	-429.61230	1713.13196																					 
22	0.210	1420.46753	-323.26096	1681.58423	1551.00793	-320.22574	1664.37622	1419.88086	-454.34055	1622.15405	1548.89685	-449.98151	1610.30188	1468.41895	-448.39313	1465.67969	1467.87634	-490.81421	1138.48181	1467.41943	-338.86514	1388.70874	1457.16809	-301.90115	1213.96411	1546.46350	-522.01129	1295.74756	1305.76013	-392.43900	1423.70142	1229.63403	-399.29202	1222.42810	1215.93860	-404.56500	1110.45300	1187.74585	-375.07742	963.89417	1222.48596	-306.75443	851.45056	1187.11670	-368.07724	845.05676	1181.60437	-322.85913	766.31085	1628.51990	-381.24951	1416.61206	1713.61694	-414.41177	1215.94958	1721.48254	-403.00348	1093.98254	1734.69055	-382.49109	975.07428	1697.04065	-318.30731	839.25903	1739.25574	-369.90942	838.08606	1738.51001	-329.73077	763.73895	1355.40991	-314.60236	980.21631	1576.05298	-313.02759	981.43964	1382.88159	-473.10458	1003.79010	1551.27869	-465.89536	1007.98975	1291.49707	-349.39697	661.49756	1311.80994	-323.51648	500.22589	1311.72864	-454.50156	285.41037	1343.20056	-528.24609	127.57151	1393.37439	-566.75018	122.08179	1324.88062	-408.25479	53.64408	1623.18628	-367.69324	645.61292	1597.29553	-363.18433	520.26471	1592.38696	-422.47931	258.36517	1540.42139	-443.60376	73.89736	1495.93713	-484.35959	50.46270	1538.35706	-289.79675	37.91657	1483.19092	-423.82867	1713.17249																					 
23	0.220	1420.50818	-317.62271	1681.35913	1551.04382	-314.47192	1664.32727	1420.06116	-448.71378	1622.06567	1549.09180	-444.30603	1610.36975	1469.33105	-443.68723	1465.84229	1468.78638	-485.60657	1138.47485	1467.82043	-333.44458	1388.53564	1457.69568	-296.53912	1213.84351	1547.31018	-516.43433	1295.90784	1306.14917	-387.44730	1423.46509	1229.79810	-396.14673	1222.41150	1215.88477	-402.02618	1110.51917	1187.20752	-374.45959	963.70978	1221.48059	-307.79086	850.10028	1186.01013	-369.56375	844.90662	1180.45801	-325.29440	765.25836	1628.94324	-375.40411	1416.65295	1714.42273	-408.22662	1216.06909	1722.51074	-396.34079	1094.10876	1735.49146	-375.13394	975.39374	1697.40869	-309.86526	840.20013	1739.73804	-361.29074	838.35486	1738.81360	-320.55469	764.49377	1356.25830	-309.16791	980.48639	1576.82983	-307.92972	981.12823	1383.41284	-467.80347	1003.92291	1551.94702	-461.40344	1007.84381	1291.56006	-341.70966	662.01794	1312.27576	-314.94104	500.93475	1312.01294	-440.06354	282.35901	1343.46790	-508.51471	122.10231	1393.56213	-546.59717	115.10229	1325.16187	-386.05267	52.51525	1623.41321	-363.90234	645.25116	1597.54932	-360.03485	519.85809	1592.31604	-420.85977	258.25299	1540.32825	-443.38358	73.92316	1495.88257	-484.31668	50.58772	1538.26782	-289.65775	37.85772	1483.22729	-418.12833	1713.10205																					 
